<svg width="35" height="35" viewBox="0 0 35 35" fill="none" xmlns="http://www.w3.org/2000/svg">
<path d="M17.4167 34.8333C15.0153 34.8333 12.7524 34.3781 10.6281 33.4677C8.50382 32.5573 6.6566 31.317 5.08646 29.7469C3.51632 28.1767 2.27604 26.3295 1.36562 24.2052C0.455208 22.0809 0 19.8181 0 17.4167C0 14.9889 0.455208 12.7194 1.36562 10.6083C2.27604 8.49722 3.51632 6.6566 5.08646 5.08646C6.6566 3.51632 8.50382 2.27604 10.6281 1.36562C12.7524 0.455208 15.0153 0 17.4167 0C19.8444 0 22.1139 0.455208 24.225 1.36562C26.3361 2.27604 28.1767 3.51632 29.7469 5.08646C31.317 6.6566 32.5573 8.49722 33.4677 10.6083C34.3781 12.7194 34.8333 14.9889 34.8333 17.4167C34.8333 19.8181 34.3781 22.0809 33.4677 24.2052C32.5573 26.3295 31.317 28.1767 29.7469 29.7469C28.1767 31.317 26.3361 32.5573 24.225 33.4677C22.1139 34.3781 19.8444 34.8333 17.4167 34.8333ZM16.4271 29.7271C16.691 29.991 16.9944 30.1229 17.3375 30.1229C17.6806 30.1229 17.984 29.991 18.2479 29.7271L29.6479 18.3271C29.9118 18.0632 30.0437 17.7465 30.0437 17.3771C30.0437 17.0076 29.9118 16.691 29.6479 16.4271L18.2479 5.02708C17.984 4.76319 17.6806 4.63125 17.3375 4.63125C16.9944 4.63125 16.691 4.76319 16.4271 5.02708L5.02708 16.4271C4.76319 16.691 4.63125 17.0076 4.63125 17.3771C4.63125 17.7465 4.76319 18.0632 5.02708 18.3271L16.4271 29.7271ZM11.0437 22.1271V15.7937C11.0437 15.3187 11.1889 14.9361 11.4792 14.6458C11.7694 14.3556 12.1521 14.2104 12.6271 14.2104H19.1979L17.5354 12.4687L19.7521 10.2521L25.2937 15.7937L19.7521 21.3354L17.5354 19.1187L19.1979 17.3771H14.2104V22.1271H11.0437ZM17.4167 31.6667C21.4014 31.6667 24.7726 30.2878 27.5302 27.5302C30.2878 24.7726 31.6667 21.4014 31.6667 17.4167C31.6667 13.4319 30.2878 10.0608 27.5302 7.30312C24.7726 4.54549 21.4014 3.16667 17.4167 3.16667C13.4319 3.16667 10.0608 4.54549 7.30312 7.30312C4.54549 10.0608 3.16667 13.4319 3.16667 17.4167C3.16667 21.4014 4.54549 24.7726 7.30312 27.5302C10.0608 30.2878 13.4319 31.6667 17.4167 31.6667Z" fill="#1A73E9"/>
</svg>
