<svg width="25" height="25" viewBox="0 0 25 25" fill="none" xmlns="http://www.w3.org/2000/svg">
<path d="M22.825 24.75L14.1625 16.0875C13.475 16.6375 12.6844 17.0729 11.7906 17.3938C10.8969 17.7146 9.94583 17.875 8.9375 17.875C6.43958 17.875 4.32552 17.0099 2.59531 15.2797C0.865104 13.5495 0 11.4354 0 8.9375C0 6.43958 0.865104 4.32552 2.59531 2.59531C4.32552 0.865104 6.43958 0 8.9375 0C11.4354 0 13.5495 0.865104 15.2797 2.59531C17.0099 4.32552 17.875 6.43958 17.875 8.9375C17.875 9.94583 17.7146 10.8969 17.3938 11.7906C17.0729 12.6844 16.6375 13.475 16.0875 14.1625L24.75 22.825L22.825 24.75ZM8.9375 15.125C10.6563 15.125 12.1172 14.5234 13.3203 13.3203C14.5234 12.1172 15.125 10.6563 15.125 8.9375C15.125 7.21875 14.5234 5.75781 13.3203 4.55469C12.1172 3.35156 10.6563 2.75 8.9375 2.75C7.21875 2.75 5.75781 3.35156 4.55469 4.55469C3.35156 5.75781 2.75 7.21875 2.75 8.9375C2.75 10.6563 3.35156 12.1172 4.55469 13.3203C5.75781 14.5234 7.21875 15.125 8.9375 15.125Z" fill="#1F1F1F"/>
</svg>
