<svg width="6" height="5" viewBox="0 0 6 5" fill="none" xmlns="http://www.w3.org/2000/svg">
<g clip-path="url(#clip0_40274_44552)">
<path d="M3.38804 2.80406V1.6797C3.38804 1.22809 3.02193 0.861983 2.57032 0.861983C2.11871 0.861983 1.75261 1.22809 1.75261 1.6797V2.80406C1.75261 3.53794 2.34753 4.13285 3.0814 4.13285C3.81528 4.13285 4.41019 3.53794 4.41019 2.80406V0.861983H4.81905V2.80406C4.81905 3.76373 4.04107 4.54171 3.0814 4.54171C2.12172 4.54171 1.34375 3.76373 1.34375 2.80406V1.6797C1.34375 1.00228 1.89291 0.453125 2.57032 0.453125C3.24774 0.453125 3.7969 1.00228 3.7969 1.6797V2.80406C3.7969 3.19922 3.47656 3.51956 3.0814 3.51956C2.68624 3.51956 2.3659 3.19922 2.3659 2.80406V1.6797H2.77475V2.80406C2.77475 2.97341 2.91205 3.1107 3.0814 3.1107C3.25075 3.1107 3.38804 2.97341 3.38804 2.80406Z" fill="#727272"/>
</g>
<defs>
<clipPath id="clip0_40274_44552">
<rect width="4.9063" height="4.9063" fill="white" transform="translate(0.526367 0.046875)"/>
</clipPath>
</defs>
</svg>
