<svg width="9" height="8" viewBox="0 0 9 8" fill="none" xmlns="http://www.w3.org/2000/svg">
<path d="M2.26172 3.71484C1.92442 3.71484 1.64844 3.99082 1.64844 4.32813C1.64844 4.66544 1.92442 4.94142 2.26172 4.94142C2.59903 4.94142 2.87501 4.66544 2.87501 4.32813C2.87501 3.99082 2.59903 3.71484 2.26172 3.71484ZM6.55474 3.71484C6.21743 3.71484 5.94145 3.99082 5.94145 4.32813C5.94145 4.66544 6.21743 4.94142 6.55474 4.94142C6.89204 4.94142 7.16802 4.66544 7.16802 4.32813C7.16802 3.99082 6.89204 3.71484 6.55474 3.71484ZM4.40823 3.71484C4.07092 3.71484 3.79494 3.99082 3.79494 4.32813C3.79494 4.66544 4.07092 4.94142 4.40823 4.94142C4.74554 4.94142 5.02152 4.66544 5.02152 4.32813C5.02152 3.99082 4.74554 3.71484 4.40823 3.71484Z" fill="#AFAFAF"/>
</svg>
