<svg width="16" height="16" viewBox="0 0 16 16" fill="none" xmlns="http://www.w3.org/2000/svg">
<path d="M9.33317 9V5.33333C9.33317 3.86057 8.13924 2.66666 6.6665 2.66666C5.19374 2.66666 3.99984 3.86057 3.99984 5.33333V9C3.99984 11.3933 5.93994 13.3333 8.33317 13.3333C10.7264 13.3333 12.6665 11.3933 12.6665 9V2.66666H13.9998V9C13.9998 12.1296 11.4628 14.6667 8.33317 14.6667C5.20356 14.6667 2.6665 12.1296 2.6665 9V5.33333C2.6665 3.12419 4.45736 1.33333 6.6665 1.33333C8.87564 1.33333 10.6665 3.12419 10.6665 5.33333V9C10.6665 10.2887 9.62184 11.3333 8.33317 11.3333C7.0445 11.3333 5.99984 10.2887 5.99984 9V5.33333H7.33317V9C7.33317 9.55226 7.7809 10 8.33317 10C8.88544 10 9.33317 9.55226 9.33317 9Z" fill="#727272"/>
</svg>
