<svg width="16" height="16" viewBox="0 0 16 16" fill="none" xmlns="http://www.w3.org/2000/svg">
<path d="M9.33317 8.99998V5.33331C9.33317 3.86055 8.13924 2.66665 6.6665 2.66665C5.19374 2.66665 3.99984 3.86055 3.99984 5.33331V8.99998C3.99984 11.3932 5.93994 13.3333 8.33317 13.3333C10.7264 13.3333 12.6665 11.3932 12.6665 8.99998V2.66665H13.9998V8.99998C13.9998 12.1296 11.4628 14.6666 8.33317 14.6666C5.20356 14.6666 2.6665 12.1296 2.6665 8.99998V5.33331C2.6665 3.12417 4.45736 1.33331 6.6665 1.33331C8.87564 1.33331 10.6665 3.12417 10.6665 5.33331V8.99998C10.6665 10.2886 9.62184 11.3333 8.33317 11.3333C7.0445 11.3333 5.99984 10.2886 5.99984 8.99998V5.33331H7.33317V8.99998C7.33317 9.55225 7.7809 9.99998 8.33317 9.99998C8.88544 9.99998 9.33317 9.55225 9.33317 8.99998Z" fill="#727272"/>
</svg>
