<svg width="16" height="16" viewBox="0 0 16 16" fill="none" xmlns="http://www.w3.org/2000/svg">
<path d="M9.33317 9.00001V5.33334C9.33317 3.86058 8.13924 2.66668 6.6665 2.66668C5.19374 2.66668 3.99984 3.86058 3.99984 5.33334V9.00001C3.99984 11.3933 5.93994 13.3333 8.33317 13.3333C10.7264 13.3333 12.6665 11.3933 12.6665 9.00001V2.66668H13.9998V9.00001C13.9998 12.1296 11.4628 14.6667 8.33317 14.6667C5.20356 14.6667 2.6665 12.1296 2.6665 9.00001V5.33334C2.6665 3.1242 4.45736 1.33334 6.6665 1.33334C8.87564 1.33334 10.6665 3.1242 10.6665 5.33334V9.00001C10.6665 10.2887 9.62184 11.3333 8.33317 11.3333C7.0445 11.3333 5.99984 10.2887 5.99984 9.00001V5.33334H7.33317V9.00001C7.33317 9.55228 7.7809 10 8.33317 10C8.88544 10 9.33317 9.55228 9.33317 9.00001Z" fill="#727272"/>
</svg>
