<svg width="28" height="28" viewBox="0 0 28 28" fill="none" xmlns="http://www.w3.org/2000/svg">
<path d="M21.7424 8.41508C22.0151 6.63702 21.7424 5.45165 20.7879 4.35746C19.7426 3.1265 17.8336 2.625 15.3792 2.625H8.33424C7.83427 2.625 7.42521 2.98973 7.3343 3.49123L4.37996 22.1836C4.3345 22.5483 4.60721 22.8675 4.97083 22.8675H9.33417L9.01601 24.7823C8.97056 25.1015 9.19781 25.375 9.56143 25.375H13.243C13.6975 25.375 14.0611 25.0559 14.1066 24.6455L14.8792 19.8129C14.9247 19.4026 15.3338 19.0834 15.7428 19.0834H16.2882C19.8335 19.0834 22.6515 17.6245 23.4696 13.4301C23.7877 11.6976 23.6514 10.1931 22.7424 9.19013C22.4696 8.87099 22.1515 8.64304 21.7424 8.41508Z" fill="#009CDE"/>
<path d="M21.7424 8.41508C22.0151 6.63702 21.7424 5.45165 20.7879 4.35746C19.7426 3.1265 17.8336 2.625 15.3792 2.625H8.33424C7.83427 2.625 7.42521 2.98973 7.3343 3.49123L4.37996 22.1836C4.3345 22.5483 4.60721 22.8675 4.97083 22.8675H9.33417L10.3796 16.12C10.4705 15.6185 10.8795 15.2538 11.3795 15.2538H13.4703C17.5609 15.2538 20.7425 13.6125 21.6515 8.77981C21.697 8.68863 21.697 8.55185 21.7424 8.41508Z" fill="#012169"/>
<path d="M11.6067 8.46067C11.6522 8.14153 12.0613 7.73121 12.4703 7.73121H18.0154C18.6517 7.73121 19.288 7.7768 19.8335 7.86799C20.3334 7.95917 21.2425 8.18712 21.697 8.46067C21.9697 6.68262 21.697 5.49724 20.7425 4.40306C19.7426 3.1265 17.8336 2.625 15.3792 2.625H8.33423C7.83427 2.625 7.4252 2.98973 7.3343 3.49123L4.37996 22.1836C4.3345 22.5483 4.60721 22.8675 4.97083 22.8675H9.33417L11.6067 8.46067Z" fill="#003087"/>
</svg>
