<svg width="48" height="48" viewBox="0 0 48 48" fill="none" xmlns="http://www.w3.org/2000/svg">
<path d="M42.0023 24.3997C42.0023 22.9197 41.8797 21.8397 41.6145 20.7197H24.3696V27.3996H34.492C34.288 29.0597 33.1859 31.5597 30.7369 33.2396L30.7026 33.4633L36.1551 37.6028L36.5329 37.6397C40.0022 34.4997 42.0023 29.8797 42.0023 24.3997" fill="#4285F4"/>
<path d="M24.3671 42.0002C29.3262 42.0002 33.4894 40.4001 36.5303 37.6402L30.7344 33.24C29.1834 34.3 27.1017 35.04 24.3671 35.04C19.51 35.04 15.3876 31.9001 13.9181 27.5601L13.7027 27.578L8.03313 31.878L7.95898 32.08C10.9793 37.96 17.1834 42.0002 24.3671 42.0002Z" fill="#34A853"/>
<path d="M13.9212 27.5602C13.5335 26.4402 13.3091 25.2401 13.3091 24.0001C13.3091 22.7601 13.5335 21.5601 13.9008 20.4401L13.8905 20.2016L8.14989 15.8325L7.96206 15.9201C6.71722 18.3601 6.00293 21.1002 6.00293 24.0001C6.00293 26.9001 6.71722 29.6401 7.96206 32.0801L13.9212 27.5602" fill="#FBBC05"/>
<path d="M24.3672 12.96C27.8162 12.96 30.1426 14.4199 31.4692 15.64L36.6529 10.68C33.4693 7.78001 29.3263 6 24.3672 6C17.1835 6 10.9794 10.04 7.95898 15.9199L13.8977 20.44C15.3877 16.1 19.5101 12.96 24.3672 12.96" fill="#EB4335"/>
</svg>
