<svg width="16" height="17" viewBox="0 0 16 17" fill="none" xmlns="http://www.w3.org/2000/svg">
<path d="M6.00016 1.16669V2.50002H10.0002V1.16669H11.3335V2.50002H14.0002C14.3684 2.50002 14.6668 2.7985 14.6668 3.16669V13.8334C14.6668 14.2016 14.3684 14.5 14.0002 14.5H2.00016C1.63198 14.5 1.3335 14.2016 1.3335 13.8334V3.16669C1.3335 2.7985 1.63198 2.50002 2.00016 2.50002H4.66683V1.16669H6.00016ZM13.3335 7.83335H2.66683V13.1667H13.3335V7.83335ZM4.66683 3.83335H2.66683V6.50002H13.3335V3.83335H11.3335V5.16669H10.0002V3.83335H6.00016V5.16669H4.66683V3.83335Z" fill="#727272"/>
</svg>
