<svg width="16" height="17" viewBox="0 0 16 17" fill="none" xmlns="http://www.w3.org/2000/svg">
<path d="M6.00016 1.16666V2.49999H10.0002V1.16666H11.3335V2.49999H14.0002C14.3684 2.49999 14.6668 2.79847 14.6668 3.16666V13.8333C14.6668 14.2015 14.3684 14.5 14.0002 14.5H2.00016C1.63198 14.5 1.3335 14.2015 1.3335 13.8333V3.16666C1.3335 2.79847 1.63198 2.49999 2.00016 2.49999H4.66683V1.16666H6.00016ZM13.3335 7.83332H2.66683V13.1667H13.3335V7.83332ZM4.66683 3.83332H2.66683V6.49999H13.3335V3.83332H11.3335V5.16666H10.0002V3.83332H6.00016V5.16666H4.66683V3.83332Z" fill="#727272"/>
</svg>
