<svg width="16" height="17" viewBox="0 0 16 17" fill="none" xmlns="http://www.w3.org/2000/svg">
<path d="M6.00016 1.16667V2.50001H10.0002V1.16667H11.3335V2.50001H14.0002C14.3684 2.50001 14.6668 2.79849 14.6668 3.16667V13.8333C14.6668 14.2015 14.3684 14.5 14.0002 14.5H2.00016C1.63198 14.5 1.3335 14.2015 1.3335 13.8333V3.16667C1.3335 2.79849 1.63198 2.50001 2.00016 2.50001H4.66683V1.16667H6.00016ZM13.3335 7.83334H2.66683V13.1667H13.3335V7.83334ZM4.66683 3.83334H2.66683V6.5H13.3335V3.83334H11.3335V5.16667H10.0002V3.83334H6.00016V5.16667H4.66683V3.83334Z" fill="#727272"/>
</svg>
