<svg width="20" height="20" viewBox="0 0 20 20" fill="none" xmlns="http://www.w3.org/2000/svg">
<path d="M10 13.75C12.0711 13.75 13.75 12.0711 13.75 10C13.75 7.92893 12.0711 6.25 10 6.25C7.92893 6.25 6.25 7.92893 6.25 10C6.25 12.0711 7.92893 13.75 10 13.75Z" stroke="#727272" stroke-width="1.5" stroke-linecap="round" stroke-linejoin="round"/>
<path d="M14.3484 5.08487C14.5486 5.26208 14.7378 5.45129 14.915 5.65144L17.0496 5.95625C17.3957 6.55902 17.6626 7.20396 17.8436 7.87507L16.5503 9.59943C16.5503 9.59943 16.5666 10.1338 16.5503 10.4006L17.8442 12.1255C17.6627 12.7965 17.3954 13.4412 17.0488 14.0437L14.915 14.3485C14.915 14.3485 14.5487 14.7379 14.3486 14.9151L14.0437 17.0496C13.441 17.3958 12.796 17.6627 12.1249 17.8437L10.4007 16.5504C10.1338 16.5666 9.86626 16.5666 9.59942 16.5504L7.87453 17.8442C7.20354 17.6628 6.55878 17.3955 5.95625 17.0489L5.6515 14.9152C5.45135 14.738 5.26214 14.5488 5.08492 14.3486L2.95036 14.0438C2.60421 13.441 2.33732 12.7961 2.15632 12.125L3.44964 10.4006C3.44964 10.4006 3.43337 9.8663 3.44959 9.59948L2.15576 7.87459C2.33722 7.2036 2.60454 6.55884 2.9511 5.95631L5.08481 5.65156C5.26202 5.45141 5.45123 5.2622 5.65138 5.08498L5.95619 2.95042C6.55896 2.60427 7.20389 2.33738 7.87501 2.15638L9.59926 3.44966C9.8661 3.43344 10.1337 3.43343 10.4005 3.44965L12.1254 2.15582C12.7964 2.33728 13.4412 2.6046 14.0437 2.95116L14.3484 5.08487Z" stroke="#727272" stroke-width="1.5" stroke-linecap="round" stroke-linejoin="round"/>
</svg>
