<svg width="22" height="22" viewBox="0 0 22 22" fill="none" xmlns="http://www.w3.org/2000/svg">
<g clip-path="url(#clip0_40567_73891)">
<path d="M11.0007 5.5C10.2755 5.5 9.56654 5.71505 8.96356 6.11794C8.36058 6.52084 7.89062 7.0935 7.61309 7.76349C7.33557 8.43349 7.26296 9.17073 7.40444 9.882C7.54592 10.5933 7.89514 11.2466 8.40793 11.7594C8.92072 12.2722 9.57406 12.6214 10.2853 12.7629C10.9966 12.9044 11.7338 12.8317 12.4038 12.5542C13.0738 12.2767 13.6465 11.8067 14.0494 11.2038C14.4523 10.6008 14.6673 9.89186 14.6673 9.16667C14.6673 8.19421 14.281 7.26157 13.5934 6.57394C12.9057 5.88631 11.9731 5.5 11.0007 5.5ZM11.0007 11C10.6381 11 10.2836 10.8925 9.98211 10.691C9.68062 10.4896 9.44563 10.2033 9.30687 9.86825C9.16811 9.53325 9.13181 9.16463 9.20255 8.809C9.27329 8.45337 9.44789 8.1267 9.70429 7.8703C9.96069 7.61391 10.2874 7.4393 10.643 7.36856C10.9986 7.29782 11.3672 7.33413 11.7022 7.47289C12.0372 7.61165 12.3236 7.84663 12.525 8.14812C12.7265 8.44961 12.834 8.80407 12.834 9.16667C12.834 9.6529 12.6408 10.1192 12.297 10.463C11.9532 10.8068 11.4869 11 11.0007 11Z" fill="#CAC8C8"/>
<path d="M11.0003 21.9999C10.2284 22.0038 9.4668 21.8228 8.77926 21.4719C8.09172 21.1211 7.49825 20.6106 7.04854 19.9832C3.55512 15.1643 1.7832 11.5416 1.7832 9.21513C1.7832 6.77061 2.75429 4.42621 4.48282 2.69767C6.21136 0.96913 8.55576 -0.00195312 11.0003 -0.00195312C13.4448 -0.00195312 15.7892 0.96913 17.5177 2.69767C19.2463 4.42621 20.2174 6.77061 20.2174 9.21513C20.2174 11.5416 18.4455 15.1643 14.952 19.9832C14.5023 20.6106 13.9089 21.1211 13.2213 21.4719C12.5338 21.8228 11.7722 22.0038 11.0003 21.9999V21.9999ZM11.0003 1.99913C9.08667 2.00131 7.25205 2.76246 5.89892 4.1156C4.54579 5.46873 3.78464 7.30335 3.78245 9.21697C3.78245 11.0595 5.5177 14.4667 8.66737 18.8108C8.93476 19.1791 9.28554 19.4789 9.69102 19.6855C10.0965 19.8922 10.5452 20 11.0003 20C11.4554 20 11.9041 19.8922 12.3095 19.6855C12.715 19.4789 13.0658 19.1791 13.3332 18.8108C16.4829 14.4667 18.2181 11.0595 18.2181 9.21697C18.2159 7.30335 17.4548 5.46873 16.1017 4.1156C14.7485 2.76246 12.9139 2.00131 11.0003 1.99913V1.99913Z" fill="#CAC8C8"/>
</g>
<defs>
<clipPath id="clip0_40567_73891">
<rect width="22" height="22" fill="white"/>
</clipPath>
</defs>
</svg>
